<?xml version="1.0" encoding="UTF-8"?>
<svg xmlns="http://www.w3.org/2000/svg" width="24" height="24" viewBox="0 0 24 24" fill="none">
  <path d="M22 4.01001C21.0883 4.6832 20.0715 5.20326 19 5.54001C18.3632 4.84751 17.5188 4.35456 16.5827 4.12338C15.6466 3.8922 14.6663 3.93367 13.7589 4.24201C12.8515 4.55035 12.0667 5.11069 11.5101 5.85401C10.9535 6.59733 10.651 7.4869 10.65 8.40001V9.40001C8.97459 9.4378 7.31839 9.06438 5.83429 8.31206C4.35019 7.55973 3.08055 6.44911 2.15 5.08001C2.15 5.08001 -1.35 13.07 6.85 16.57C4.92389 17.8828 2.63401 18.5767 0.3 18.56C8.5 23.06 18.5 18.56 18.5 8.36001C18.4992 8.11327 18.4796 7.86726 18.44 7.62501C19.4135 6.67355 20.0698 5.41793 22 4.01001Z" fill="white"/>
</svg>