<?xml version="1.0" encoding="UTF-8"?>
<svg xmlns="http://www.w3.org/2000/svg" width="24" height="24" viewBox="0 0 24 24" fill="none">
  <path d="M23.498 6.186C23.379 5.754 23.156 5.359 22.848 5.034C22.539 4.708 22.155 4.462 21.73 4.318C19.831 3.795 12 3.795 12 3.795C12 3.795 4.17 3.795 2.271 4.318C1.845 4.462 1.462 4.708 1.153 5.034C0.845 5.359 0.622 5.754 0.503 6.186C0 8.141 0 12 0 12C0 12 0 15.86 0.503 17.814C0.622 18.246 0.845 18.641 1.153 18.966C1.462 19.292 1.845 19.538 2.271 19.682C4.17 20.205 12 20.205 12 20.205C12 20.205 19.83 20.205 21.729 19.682C22.155 19.538 22.539 19.292 22.847 18.966C23.155 18.641 23.378 18.246 23.497 17.814C24 15.86 24 12 24 12C24 12 24 8.141 23.498 6.186ZM9.545 15.568V8.432L15.818 12L9.545 15.568Z" fill="white"/>
</svg>